<?xml version="1.0" encoding="UTF-8"?> <svg xmlns="http://www.w3.org/2000/svg" width="118" height="39" viewBox="0 0 118 39" fill="none"><path d="M22.4073 8.77972C16.0425 8.77972 11.7703 12.5326 11.7703 19.7778V24.9274C12.3804 24.6219 13.0782 24.4472 13.819 24.4472C14.5599 24.4472 15.2578 24.6219 15.9117 24.9274V19.7339C15.9117 15.0206 18.4836 12.6205 22.4073 12.6205C26.331 12.6205 28.9028 15.0206 28.9028 19.7339V31.0375H33.0442V19.7339C33.0881 12.4458 28.7721 8.77972 22.4073 8.77972Z" fill="#1A1B1D"></path><path d="M35.3116 20.1702C35.3116 13.58 40.1067 8.73588 46.908 8.73588C53.7092 8.73588 58.4176 13.58 58.4176 20.1702V21.6977H39.7145C40.3244 25.5814 43.202 27.7199 46.9508 27.7199C49.7416 27.7199 51.7032 26.8474 52.9673 24.9704H57.5449C55.8885 29.0288 51.9649 31.6036 46.9508 31.6036C40.15 31.6036 35.3106 26.7595 35.3106 20.1693L35.3116 20.1702ZM54.1014 17.9878C53.2727 14.4965 50.4394 12.6196 46.952 12.6196C43.4645 12.6196 40.6741 14.5394 39.8461 17.9878H54.1025H54.1014Z" fill="#1A1B1D"></path><path d="M60.6849 20.1702C60.6849 13.58 65.4802 8.73588 72.2814 8.73588C79.0823 8.73588 83.8775 13.58 83.8775 20.1702C83.8775 26.7605 79.0823 31.6046 72.2814 31.6046C65.4802 31.6046 60.6849 26.7605 60.6849 20.1702ZM79.7362 20.1702C79.7362 15.7624 76.7721 12.6205 72.325 12.6205C67.8784 12.6205 64.9139 15.7624 64.9139 20.1702C64.9139 24.5781 67.8784 27.7199 72.325 27.7199C76.7721 27.7199 79.7362 24.5781 79.7362 20.1702Z" fill="#1A1B1D"></path><path d="M107.594 35.3584H108.073C110.732 35.3584 111.735 34.1803 111.735 31.0814V9.4786H115.876V30.8198C115.876 36.1882 113.784 38.9376 108.465 38.9376H107.594V35.3595V35.3584Z" fill="#1A1B1D"></path><path d="M105.545 33.132H101.402V27.9825H90.8964C88.8036 27.9825 86.9728 26.9352 86.1441 25.2769C85.3593 23.7054 85.577 21.8724 86.7111 20.3449L96.1711 7.90717C97.5228 6.07415 99.833 5.33235 101.97 6.03023C104.149 6.7281 105.545 8.6919 105.545 11.0051V24.3155H108.683V28.0254H105.545V33.1312V33.132ZM90.1557 22.6142C90.0249 22.7889 89.9809 23.0066 89.9809 23.2252C89.9809 23.7923 90.4599 24.2725 91.0273 24.2725H101.402V10.8744C101.402 10.1765 100.879 9.91394 100.662 9.87097C100.575 9.82705 100.444 9.82705 100.269 9.82705C100.008 9.82705 99.7022 9.91394 99.4409 10.2633L90.1557 22.6142Z" fill="#1A1B1D"></path><path d="M113.824 0.619049C111.862 0.619049 110.292 2.23342 110.292 4.1982C110.292 6.16298 111.906 7.7764 113.824 7.7764C115.742 7.7764 117.355 6.16199 117.355 4.1982C117.355 2.2344 115.742 0.619049 113.824 0.619049Z" fill="#014063"></path><path d="M2.44132 21.2185C1.91817 21.4801 1.43893 21.9164 1.08951 22.4844C0.741058 23.0515 0.610271 23.6625 0.653216 24.2735C0.697137 25.3647 1.30717 26.3681 2.30956 26.9352C3.2251 27.4583 4.27142 27.3275 5.27382 27.1099C6.49483 26.8044 7.54115 26.6736 8.63045 27.3285H8.67437C10.5493 28.4197 10.5493 31.1693 8.67437 32.2595H8.63045C7.54021 32.9143 6.49389 32.7834 5.27382 32.4781C4.31436 32.2165 3.26804 32.0858 2.30956 32.653C1.30717 33.22 0.740083 34.2672 0.653216 35.3144C0.609292 35.9254 0.740083 36.5364 1.08951 37.1034C1.43795 37.6708 1.87425 38.107 2.44132 38.3695C3.40078 38.8496 4.57788 38.8496 5.58028 38.2826C6.49582 37.7596 6.93211 36.7553 7.1937 35.7945C7.54214 34.5729 7.93451 33.6122 9.06867 33.0011C10.1589 32.3464 11.2052 32.4781 12.4253 32.7834C13.3848 33.0451 14.4311 33.176 15.3896 32.609C16.392 32.0418 16.959 30.9945 17.0459 29.9472V29.5109C17.002 28.4197 16.392 27.4164 15.3896 26.8493C14.474 26.3251 13.4277 26.4569 12.4253 26.6746C11.2043 26.9801 10.158 27.1109 9.06867 26.4559C7.97843 25.801 7.54313 24.8845 7.1937 23.6625C6.93211 22.7021 6.49582 21.7426 5.58028 21.1746C4.57788 20.7383 3.40078 20.7383 2.44132 21.2185Z" fill="#014063"></path></svg> 